# xmcd
#
# Track frame offsets:
#	150
#	11533
#	23684
#	38992
#	51582
#	62366
#	74772
#	86631
#	99232
#	109468
#	125376
#	137086
#	155837
#	177887
#	198045
#	218485
#	235934
#	250676
#
# Disc length: 3512 seconds
#
# Revision: 1
# Processed by: cddbd v1.5.2PL0 Copyright (c) Steve Scherf et al.
# Submitted via: audiograbber 1.83.01
#
DISCID=f60db612
DTITLE=Compilation - Country 116 Original Hits Disc 2
DYEAR=2010
DGENRE=Country
TTITLE0=Crystal Gayle - Don't It Make My Brown Eyes Blue
TTITLE1=Glen Campbell - By The Time I Get To Phoenix
TTITLE2=Slim Whitman - Can't Help Falling In Love
TTITLE3=Wanda Jackson - Funny How Time Slips Away
TTITLE4=Willie Nelson - Hello Walls
TTITLE5=Faron Young - Sweet Dreams
TTITLE6=Sonny James - Young Love
TTITLE7=Tex Ritter - High Noon (Do Not Forsake Me)
TTITLE8=Tennessee Ernie Ford - King Of The Road
TTITLE9=Kenny Rogers And Dottie west - Just The Way You Are
TTITLE10=Lacy J Dalton - Love Hurts
TTITLE11=Juice Newton - Angel Of The Morning
TTITLE12=Deana Carter - Strawberry Wine
TTITLE13=Steve Warner - Two Teardrops
TTITLE14=Suzy Bogguss - Take It To The Limit
TTITLE15=Marie Osmond And Dan Seals - Meet Me In Montana
TTITLE16=Shelby Lynne - Lonesome
TTITLE17=Tanya Tucker - Would You Lay With Me (In A field Of Stone)
EXTD=
EXTT0=
EXTT1=
EXTT2=
EXTT3=
EXTT4=
EXTT5=
EXTT6=
EXTT7=
EXTT8=
EXTT9=
EXTT10=
EXTT11=
EXTT12=
EXTT13=
EXTT14=
EXTT15=
EXTT16=
EXTT17=
PLAYORDER=
